<svg xmlns="http://www.w3.org/2000/svg" width="1200" height="480" viewBox="0 0 1200 480">
  <rect width="1200" height="480" rx="20" fill="#0d1117"/>
  <text x="48" y="60" fill="#f0f6fc" font-family="Segoe UI,Arial" font-size="30" font-weight="700">WHOLE-AZ LOSS: us-east-1a — PASS</text>
  <text x="48" y="94" fill="#8b949e" font-family="Segoe UI,Arial" font-size="17">Provisioning fenced to surviving AZ before the 300-second acceptance window</text>
  <g font-family="Segoe UI,Arial">
    <rect x="48" y="128" width="250" height="220" rx="14" fill="#161b22" stroke="#238636" stroke-width="2"/>
    <text x="73" y="169" fill="#8b949e" font-size="18">EVACUATION</text><text x="73" y="218" fill="#3fb950" font-size="36" font-weight="700">26.462 s</text><text x="73" y="253" fill="#f0f6fc" font-size="17">2 fault nodes</text><text x="73" y="283" fill="#f0f6fc" font-size="17">13 target Pods</text><text x="73" y="313" fill="#f0f6fc" font-size="17">0 node re-entry</text>
    <rect x="322" y="128" width="250" height="220" rx="14" fill="#161b22" stroke="#238636" stroke-width="2"/>
    <text x="347" y="169" fill="#8b949e" font-size="18">BROWSE / CART</text><text x="347" y="218" fill="#3fb950" font-size="36" font-weight="700">100%</text><text x="347" y="253" fill="#f0f6fc" font-size="17">1200 / 1200</text><text x="347" y="283" fill="#f0f6fc" font-size="17">p95 311.46 ms</text><text x="347" y="313" fill="#f0f6fc" font-size="17">dropped 0</text>
    <rect x="596" y="128" width="250" height="220" rx="14" fill="#161b22" stroke="#238636" stroke-width="2"/>
    <text x="621" y="169" fill="#8b949e" font-size="18">CHECKOUT</text><text x="621" y="218" fill="#3fb950" font-size="36" font-weight="700">99.9167%</text><text x="621" y="253" fill="#f0f6fc" font-size="17">1199 / 1200</text><text x="621" y="283" fill="#f0f6fc" font-size="17">required ≥ 99%</text><text x="621" y="313" fill="#f0f6fc" font-size="17">SLO PASS</text>
    <rect x="870" y="128" width="282" height="220" rx="14" fill="#161b22" stroke="#238636" stroke-width="2"/>
    <text x="895" y="169" fill="#8b949e" font-size="18">ROLLBACK + RECOVERY</text><text x="895" y="218" fill="#3fb950" font-size="30" font-weight="700">RESTORED</text><text x="895" y="253" fill="#f0f6fc" font-size="17">NodePools: 2/2</text><text x="895" y="283" fill="#f0f6fc" font-size="17">600/600 all flows</text><text x="895" y="313" fill="#f0f6fc" font-size="17">failed Jobs: 0</text>
  </g>
  <text x="48" y="412" fill="#8b949e" font-family="Consolas,monospace" font-size="15">Sources: fault-boundary.json • az-k6-summary.json • cleanup.json • recovery-k6-summary.json • recovery-state.json</text>
</svg>
